<?xml version="1.0" encoding="UTF-8"?>
<svg width="40px" height="39px" viewBox="0 0 40 39" version="1.1" xmlns="http://www.w3.org/2000/svg" xmlns:xlink="http://www.w3.org/1999/xlink">
    <!-- Generator: sketchtool 62 (101010) - https://sketch.com -->
    <title>6A3E7618-6002-46CC-9163-0BE4C6C175E7</title>
    <desc>Created with sketchtool.</desc>
    <g id="Page-1" stroke="none" stroke-width="1" fill="none" fill-rule="evenodd">
        <g id="HOME_Go2Africa.com-2021_Present" transform="translate(-535.000000, -3111.000000)" fill="#9B8856" fill-rule="nonzero">
            <g id="Group-150" transform="translate(-52.000000, 2753.000000)">
                <g id="Group-199" transform="translate(0.000000, 112.000000)">
                    <g id="Group-79">
                        <g id="Group-202" transform="translate(129.672972, 0.000000)">
                            <path d="M465.809326,249.709371 C472.355418,244.961953 481.154266,244.753914 487.917413,249.186648 C491.348295,251.471562 493.978755,254.77218 495.440517,258.626402 L495.440517,258.626402 L495.461016,258.636651 C498.589464,268.272882 493.806719,278.698152 484.461928,282.612103 C475.117137,286.526053 464.332337,282.621058 459.659649,273.631613 C457.991034,270.036343 457.444555,266.021682 458.091482,262.111219 C458.776826,258.163736 460.663053,254.523713 463.492948,251.687517 C464.214532,250.97115 464.98883,250.309913 465.809326,249.709371 Z M470.597461,255.257531 C470.359725,255.257531 470.12199,255.347925 469.939395,255.528712 L469.308447,256.163275 C466.897648,258.574074 467.442722,263.995886 473.142946,269.697918 C476.543555,273.098527 479.449711,274.282684 481.289222,274.6768 C483.503867,275.150463 485.468121,274.735556 486.670357,273.533321 L487.314864,272.888814 C487.487515,272.714354 487.581525,272.480234 487.579743,272.231652 C487.577909,271.983069 487.480284,271.749854 487.302208,271.575394 L485.08666,269.359845 C484.732317,269.004598 484.143854,269.000983 483.780472,269.352614 C482.185927,270.927271 479.664848,271.174046 477.787372,269.941077 C475.833061,268.640312 474.184281,266.992436 472.881708,265.043548 C471.644219,263.156129 471.900033,260.63053 473.487346,259.034178 C473.831746,258.672603 473.825418,258.101315 473.466555,257.738837 L471.254622,255.528712 C471.073835,255.347925 470.8361,255.257531 470.597461,255.257531 Z" id="24/7-On-safari-support"></path>
                        </g>
                    </g>
                </g>
            </g>
        </g>
    </g>
</svg>