<?xml version="1.0" encoding="UTF-8"?>
<svg width="37px" height="38px" viewBox="0 0 37 38" version="1.1" xmlns="http://www.w3.org/2000/svg" xmlns:xlink="http://www.w3.org/1999/xlink">
    <!-- Generator: sketchtool 62 (101010) - https://sketch.com -->
    <title>2EB793D0-8921-4AE6-A312-8385381C9373</title>
    <desc>Created with sketchtool.</desc>
    <g id="Page-1" stroke="none" stroke-width="1" fill="none" fill-rule="evenodd">
        <g id="HOME_Go2Africa.com-2021_Present" transform="translate(-77.000000, -2865.000000)" fill="#9B8856">
            <g id="Group-150" transform="translate(-52.000000, 2753.000000)">
                <g id="Group-199" transform="translate(0.000000, 112.000000)">
                    <g id="Group-79">
                        <g id="Group-202" transform="translate(129.672972, 0.000000)">
                            <g id="Group-51" transform="translate(0.000000, 0.077429)">
                                <path d="M36.0095806,14.6879032 C35.8259032,14.2173871 35.3767742,13.902871 34.8722903,13.8902903 L33.6985161,13.8600968 C32.936129,13.8588387 32.3549032,13.4688387 32.0743548,12.7894839 L29.1569032,4.82719355 C28.9354839,4.22835484 28.3592903,3.83080645 27.5755161,3.73393548 C27.0987097,3.67606452 26.5174839,3.58674194 25.7450323,3.45212903 L24.9184839,3.29864516 C22.3570645,2.81806452 22.1067097,2.77403226 21.6236129,2.77403226 C21.2965161,2.77403226 20.9731935,2.80170968 20.5756452,2.86335484 C20.4334839,2.88222581 20.28,2.9073871 19.9428387,2.96651613 C19.0760323,3.11119355 18.5212258,3.16025806 17.7563226,3.16025806 C17.1121935,3.16025806 16.2265161,2.96903226 15.1093548,1.47822581 L14.8879355,1.17 C14.7445161,0.963677419 14.5683871,0.71583871 14.4274839,0.519580645 C14.1871935,0.189967742 13.8085161,3.55271368e-15 13.4084516,3.55271368e-15 C13.338,3.55271368e-15 13.2650323,0.00629032258 13.1933226,0.0188709677 C12.7240645,0.100645161 12.0522581,0.249096774 11.1942581,0.460451613 L10.7300323,0.573677419 C9.61287097,0.839129032 8.95112903,0.943548387 8.37870968,0.943548387 C6.38845161,0.943548387 4.57558065,2.19909677 4.57558065,3.57793548 C4.57558065,4.21325806 4.3466129,4.78064516 3.83080645,5.41848387 C3.50496774,5.82232258 2.11606452,7.10680645 1.28574194,7.87296774 L1.08570968,8.05916129 C0.865548387,8.26045161 0.698225806,8.41645161 0.634064516,8.4806129 C0.211354839,8.89954839 -1.63424829e-12,9.52480645 -1.63424829e-12,10.3412903 C-1.63424829e-12,12.2208387 1.23667742,14.9860645 2.75767742,16.5058065 C3.65341935,17.3952581 4.71019355,17.8443871 5.89906452,17.8443871 C6.64383871,17.8443871 7.42258065,17.6720323 8.28058065,17.3147419 C9.19519355,16.9385806 9.89090323,16.7611935 10.4696129,16.7611935 C11.0395161,16.7611935 11.7654194,16.9020968 12.8133871,17.9488065 C13.2876774,18.4218387 13.5606774,18.9225484 13.962,19.7994194 L13.9884194,19.8585484 C14.2173871,20.3592581 14.255129,20.4422903 14.3683548,20.6574194 C14.6489032,21.1983871 14.9546129,21.626129 15.327,21.9985161 C15.7723548,22.4426129 16.2290323,23.2578387 16.2479032,25.9526129 L16.1636129,28.7115484 C16.0893871,30.1130323 16.0793226,30.3118065 16.0793226,30.7584194 C16.0793226,32.7562258 17.7336774,35.4824516 19.2899032,37.0336452 L19.3792258,37.1292581 C19.6471935,37.4249032 20.0535484,37.8765484 20.7140323,37.887871 L20.7152903,37.887871 C21.0700645,37.887871 21.333,37.7658387 21.4915161,37.692871 C22.4325484,37.2525484 23.4893226,36.7593871 24.2819032,35.8774839 C24.9499355,35.1377419 25.467,34.2847742 25.9677097,33.4607419 L26.5527097,32.507129 C27.6057097,30.8087419 28.1517097,30.0564194 28.7908065,29.4173226 C29.5318065,28.6800968 30.0023226,27.7415806 30.2275161,26.5539677 C30.3910645,25.6695484 30.4049032,24.9134516 30.3734516,23.6465806 C30.360871,23.186129 30.3583548,23.0565484 30.3583548,22.854 C30.3583548,21.9809032 31.1043871,20.7895161 32.778871,18.9892258 C33.0984194,18.6457742 33.4456452,18.2859677 33.8419355,17.8896774 C34.1627419,17.5676129 34.9314194,16.8152903 35.4962903,16.2642581 L35.7189677,16.047871 C36.0800323,15.6943548 36.1932581,15.1596774 36.0095806,14.6879032" id="We-are-African"></path>
                            </g>
                        </g>
                    </g>
                </g>
            </g>
        </g>
    </g>
</svg>