<?xml version="1.0" encoding="UTF-8"?>
<svg width="39px" height="39px" viewBox="0 0 39 39" version="1.1" xmlns="http://www.w3.org/2000/svg" xmlns:xlink="http://www.w3.org/1999/xlink">
    <!-- Generator: sketchtool 62 (101010) - https://sketch.com -->
    <title>C01733E0-9110-42E3-95B5-A6161EC2AEDF</title>
    <desc>Created with sketchtool.</desc>
    <g id="Page-1" stroke="none" stroke-width="1" fill="none" fill-rule="evenodd">
        <g id="HOME_Go2Africa.com-2021_Present" transform="translate(-535.000000, -2867.000000)" fill="#9B8856" fill-rule="nonzero">
            <g id="Group-150" transform="translate(-52.000000, 2753.000000)">
                <g id="Group-199" transform="translate(0.000000, 112.000000)">
                    <g id="Group-79">
                        <g id="Group-202" transform="translate(129.672972, 0.000000)">
                            <g id="Group-85" transform="translate(457.620623, 2.000000)">
                                <path d="M7.98229747,3.70937087 C14.5283895,-1.03804654 23.3272377,-1.24608607 30.0903847,3.18664836 C33.5212667,5.47156171 36.1517265,8.77217954 37.6134891,12.6264019 L37.6134891,12.6264019 L37.633988,12.6366514 C40.7624354,22.2728823 35.9796905,32.6981522 26.6348994,36.6121028 C17.2901083,40.5260534 6.50530834,36.6210577 1.83262091,27.6316127 C0.164006031,24.0363431 -0.382473626,20.0216821 0.264453384,16.1112186 C0.94979819,12.1637362 2.83602443,8.52371324 5.6659193,5.68751683 C6.38750362,4.97115016 7.16180147,4.3099135 7.98229747,3.70937087 Z M28.2523885,10.630929 C28.2523885,10.630929 14.9211825,15.5474983 14.9211825,15.5474983 C11.9556718,23.7607647 10.4729165,27.867398 10.4729165,27.867398 C10.4729165,27.867398 22.9474497,23.6964206 23.7931808,23.4136425 L23.7931808,23.4136425 L23.8382136,23.3985853 C26.6795215,15.1803238 28.1491636,10.9294988 28.2471398,10.6461105 L28.2471398,10.6461105 Z M19.5227828,17.5705045 C20.6009963,17.5705045 21.475061,18.4445692 21.475061,19.5227828 C21.475061,20.6009963 20.6009963,21.475061 19.5227828,21.475061 C18.4445692,21.475061 17.5705045,20.6009963 17.5705045,19.5227828 C17.5705045,18.4445692 18.4445692,17.5705045 19.5227828,17.5705045 Z" id="We-are-safari-experts"></path>
                            </g>
                        </g>
                    </g>
                </g>
            </g>
        </g>
    </g>
</svg>