<?xml version="1.0" encoding="UTF-8"?>
<svg width="34px" height="39px" viewBox="0 0 34 39" version="1.1" xmlns="http://www.w3.org/2000/svg" xmlns:xlink="http://www.w3.org/1999/xlink">
    <!-- Generator: sketchtool 62 (101010) - https://sketch.com -->
    <title>5D54C7AD-DA68-41A6-86C6-1427138756F9</title>
    <desc>Created with sketchtool.</desc>
    <g id="Page-1" stroke="none" stroke-width="1" fill="none" fill-rule="evenodd">
        <g id="HOME_Go2Africa.com-2021_Present" transform="translate(-995.000000, -3112.000000)" fill="#9B8856" fill-rule="nonzero">
            <g id="Group-150" transform="translate(-52.000000, 2753.000000)">
                <g id="Group-199" transform="translate(0.000000, 112.000000)">
                    <g id="Group-79">
                        <g id="Group-202" transform="translate(129.672972, 0.000000)">
                            <g id="Group-4" transform="translate(69.120623, 0.000000)">
                                <g id="Group-61" transform="translate(847.879377, 247.000000)">
                                    <g id="Group-127-Copy-4" transform="translate(0.855154, -0.000000)">
                                        <g id="Group-154">
                                            <path d="M25.228007,14.8181136 L14.7018277,24.8895369 C14.5188184,25.0654248 14.2743126,25.1663421 14.0180758,25.1717484 L13.9730922,25.1717484 C13.6976417,25.1591709 13.440035,25.0345088 13.2623502,24.8278032 L8.26016579,19.0601054 C7.95572605,18.6492914 8.02226319,18.078493 8.41339683,17.7455909 C8.80453047,17.4126888 9.39040048,17.4282096 9.76262044,17.7813345 L14.081053,22.7200359 L23.8245164,13.4158752 L23.8964903,13.3541414 C24.3088973,12.9937126 24.9412894,13.0292487 25.3089775,13.4335134 C25.6766657,13.8377782 25.640414,14.4576848 25.228007,14.8181136 M33.460019,15.5765571 L33.460019,8.39780174 C33.4434197,6.39478169 31.8938646,4.7239237 29.8613252,4.51739346 C26.0097063,4.20133078 22.3109446,2.89643076 19.1372178,0.73399539 C17.7243612,-0.24466513 15.8357854,-0.24466513 14.4229289,0.73399539 C11.2411362,2.88106809 7.54666916,4.18445297 3.69882142,4.51739346 C1.68409178,4.74467206 0.159096987,6.40986202 0.14484566,8.39780174 L0.14484566,15.5765571 C0.110394747,22.915614 3.48009978,29.8724014 9.30378699,34.4847283 C11.1511976,35.9204939 13.2151085,37.065961 15.4215664,37.8800856 C16.3275693,38.2066707 17.3225447,38.2066707 18.2285476,37.8800856 C20.4350055,37.065961 22.4989164,35.9204939 24.346327,34.4847283 C30.1531827,29.8636941 33.5057067,22.9082145 33.460019,15.5765571" id="Complete-financial-protection"></path>
                                        </g>
                                    </g>
                                </g>
                            </g>
                        </g>
                    </g>
                </g>
            </g>
        </g>
    </g>
</svg>