<?xml version="1.0" encoding="UTF-8"?>
<svg width="38px" height="39px" viewBox="0 0 38 39" version="1.1" xmlns="http://www.w3.org/2000/svg" xmlns:xlink="http://www.w3.org/1999/xlink">
    <!-- Generator: sketchtool 62 (101010) - https://sketch.com -->
    <title>CF859E5B-A938-489F-BD7A-451F2F7D7A0D</title>
    <desc>Created with sketchtool.</desc>
    <g id="Page-1" stroke="none" stroke-width="1" fill="none" fill-rule="evenodd">
        <g id="HOME_Go2Africa.com-2021_Present" transform="translate(-996.000000, -2866.000000)" fill="#9B8856">
            <g id="Group-150" transform="translate(-52.000000, 2753.000000)">
                <g id="Group-199" transform="translate(0.000000, 112.000000)">
                    <g id="Group-79">
                        <g id="Group-202" transform="translate(129.672972, 0.000000)">
                            <g id="Group-4" transform="translate(69.120623, 0.000000)">
                                <g id="Group-31" transform="translate(0.000000, 0.075370)">
                                    <path d="M868.166885,0.924630325 C878.638469,0.924630325 887.127365,9.45975702 887.127365,19.9883694 C887.127365,30.5169817 878.638469,39.0521084 868.166885,39.0521084 C857.695301,39.0521084 849.206405,30.5169817 849.206405,19.9883694 C849.206405,9.45975702 857.695301,0.924630325 868.166885,0.924630325 Z M868.08501,10.4925326 C867.532609,10.5442119 867.104536,10.9981167 867.085276,11.5525958 L867.085276,12.6471326 C864.706597,13.1039078 863.379364,14.7155486 863.379364,16.749491 L863.362127,16.749491 C863.362127,18.990275 864.956531,20.1451406 867.292117,20.9811254 C868.903758,21.5585582 869.601848,22.1187542 869.601848,22.9892126 C869.601848,23.859671 868.740008,24.4284854 867.507577,24.4284854 C866.696152,24.4190142 865.892079,24.2733487 865.128899,23.9975654 C864.987902,23.9467575 864.839231,23.9205216 864.68936,23.9199998 C864.107467,23.9266197 863.607159,24.3340133 863.482784,24.9024974 L863.482784,25.0145366 C863.314099,25.6911244 863.68721,26.3851106 864.344624,26.617559 C865.179576,26.9001782 866.049723,27.065506 866.930144,27.1088078 L866.930144,28.2205814 C866.858349,28.6266409 867.024642,29.0380583 867.35843,29.280183 C867.692219,29.5223077 868.134934,29.5526551 868.498639,29.3583425 C868.862344,29.1640299 869.083222,28.7791524 869.067508,28.3670942 L869.067508,26.9881502 C871.575462,26.531375 872.971643,24.764603 872.971643,22.6789502 C872.971643,20.5932974 871.920198,19.3177742 869.32606,18.3697502 C867.464485,17.6285678 866.74054,17.1459374 866.74054,16.3788998 C866.74054,15.6118622 867.197315,15.0861398 868.619351,15.0861398 C869.274373,15.0801473 869.92613,15.1790747 870.549872,15.3791654 C870.661506,15.4137457 870.777742,15.4311811 870.894608,15.4308758 C871.239796,15.4218529 871.567246,15.2760123 871.804862,15.0254645 C872.042478,14.7749167 872.170778,14.4402047 872.161513,14.0950238 C872.174243,13.5074618 871.799049,12.9814888 871.239344,12.8022638 C870.58342,12.6093209 869.905911,12.4992981 869.222639,12.4747646 L869.222639,11.5525958 C869.216004,11.2599176 869.091478,10.9823166 868.877298,10.7827392 C868.663117,10.5831618 868.377428,10.4785167 868.08501,10.4925326 Z" id="Our-best-price-promise"></path>
                                </g>
                            </g>
                        </g>
                    </g>
                </g>
            </g>
        </g>
    </g>
</svg>