<?xml version="1.0" encoding="UTF-8"?>
<svg width="38px" height="39px" viewBox="0 0 38 39" version="1.1" xmlns="http://www.w3.org/2000/svg" xmlns:xlink="http://www.w3.org/1999/xlink">
    <!-- Generator: sketchtool 62 (101010) - https://sketch.com -->
    <title>35CE3747-492F-4E88-A02B-932D376566A2</title>
    <desc>Created with sketchtool.</desc>
    <g id="Page-1" stroke="none" stroke-width="1" fill="none" fill-rule="evenodd">
        <g id="HOME_Go2Africa.com-2021_Present" transform="translate(-239.000000, -1390.000000)" fill="#9B8856">
            <g id="Group-189" transform="translate(239.000000, 1390.079759)">
                <path d="M34.0754369,14.5352546 C33.1957183,14.5352546 32.4807886,14.0737436 32.1398026,13.2737912 L29.2636047,5.65455249 C29.0962807,5.21027124 28.6488158,4.92105769 28.017548,4.84598524 C27.4876887,4.78445044 26.8995196,4.69460963 26.1947306,4.57277073 C25.9462799,4.52969637 25.6864207,4.48416062 25.3809276,4.42754861 C22.8355749,3.96480693 22.6340255,3.93157813 22.1992367,3.93157813 C21.8848704,3.93157813 21.5920534,3.95619205 21.2244477,4.01034268 C21.0774054,4.03126451 20.9303631,4.05464773 20.612194,4.10756766 C19.7819121,4.24171352 19.193743,4.30078692 18.3888132,4.30078692 C17.2251509,4.30078692 16.3467,3.67067059 15.4695167,2.53719961 C15.4036012,2.45105089 14.6455728,1.39142166 14.5112066,1.26219859 C14.4452911,1.1982024 13.7138824,1.30035016 12.0140229,1.70647983 C11.8327552,1.74955419 11.6933185,1.78278298 11.5576847,1.81478107 C10.4954309,2.05968957 9.77923356,2.17906708 9.14669819,2.17906708 C7.4252893,2.17906708 5.77993678,3.24854187 5.77993678,4.33032363 C5.77993678,5.0404352 5.50106347,5.67424362 4.96106333,6.32405109 C4.48444349,6.89878611 2.07472458,9.00204551 1.78317521,9.28387489 C0.450921353,10.574875 1.92768229,14.5451001 3.87852785,16.4342184 C5.18416198,17.6981432 6.87261311,17.9516666 8.90458545,17.1320231 C11.2116283,16.2016169 12.3423328,16.4206808 13.786136,17.8175207 C14.2728967,18.2888773 14.5505024,18.7491576 14.9688123,19.6438735 C15.2350096,20.2099937 15.2654321,20.2752206 15.3858547,20.4992072 C15.6419111,20.9754866 15.9119112,21.3508488 16.263038,21.6905209 C17.1009255,22.5015496 17.334165,24.0731483 17.2745876,26.5911522 C17.2619115,27.1117366 17.2403622,27.6113992 17.1997988,28.3707386 C17.1262777,29.7134279 17.1161368,29.9189541 17.1161368,30.332468 C17.1161368,32.0111373 18.5295174,34.4885283 20.1697996,36.0748954 C20.6514898,36.5413291 20.9227575,36.7259335 21.1154336,36.7616237 C21.245997,36.7862376 21.4158562,36.7517781 21.7390957,36.6237858 C21.9127577,36.5536361 22.9230397,36.0970479 23.279237,35.946903 C24.1754344,35.5690793 24.942336,34.6165206 26.5002237,32.1748198 C26.6143082,31.9951382 26.6143082,31.9951382 26.7296604,31.8154566 C27.7259986,30.2573955 28.3052946,29.4549818 28.9910694,28.7904059 C29.6882526,28.1159845 30.1014922,27.2717271 30.3005063,26.2379425 C30.4513514,25.4675268 30.4729007,24.7906441 30.4386754,23.5377956 C30.4272669,23.0922836 30.4247317,22.9679833 30.4247317,22.7723027 C30.4247317,21.763132 31.289239,20.516437 32.9117746,18.8229993 C33.2312113,18.48825 33.5798029,18.1399631 33.968958,17.7609087 C34.4633243,17.2784759 36.0250148,15.8041021 36.2316346,15.6047294 C36.6423389,15.2059839 36.7538882,14.9672289 36.7298037,14.8749267 C36.7183953,14.833083 36.6144516,14.7493957 36.4065642,14.6681697 C36.2138881,14.594328 36.0110711,14.5512536 35.8792401,14.5352546 L34.0754369,14.5352546 Z M35.9160007,13.3045586 L35.9844514,13.3082507 C36.2164233,13.3316339 36.5396628,13.3956301 36.8743108,13.5248532 C37.420649,13.7353022 37.82248,14.0614366 37.9581139,14.5684834 C38.1165646,15.169063 37.82248,15.8016407 37.1265644,16.4760621 C36.9110714,16.6840497 35.351916,18.1559621 34.866423,18.6285494 C34.4874088,18.9989888 34.148958,19.3374302 33.8383945,19.6611033 C32.4529012,21.1084017 31.6923377,22.2049518 31.6923377,22.7723027 C31.6923377,22.9519843 31.6948729,23.0725925 31.7062813,23.5057975 C31.7417743,24.8423333 31.7189574,25.5832123 31.5478306,26.4656213 C31.3031826,27.7283153 30.7796614,28.7965594 29.8859992,29.6629694 C29.2952948,30.235243 28.7502242,30.9884289 27.8071254,32.4640334 C27.6930409,32.6424843 27.6930409,32.6424843 27.5776887,32.8233966 C25.8537446,35.5272357 25.0285332,36.5524054 23.7850117,37.0754512 C23.452899,37.2145198 22.4286734,37.6784922 22.2195184,37.7621795 C21.6909267,37.9726285 21.3030393,38.047701 20.8809265,37.9701671 C20.3675461,37.8766343 19.923884,37.5751137 19.2748697,36.9462281 C17.4190946,35.1506427 15.8485309,32.3975758 15.8485309,30.332468 C15.8485309,29.886956 15.8586717,29.6826605 15.9334605,28.3055117 C15.9740238,27.5572486 15.9955731,27.0686623 16.0082492,26.5628462 C16.0589534,24.4128204 15.8536013,23.0307488 15.3681082,22.5618537 C14.9168405,22.1249566 14.5745869,21.6486773 14.2627558,21.0690195 C14.127122,20.8167268 14.0928966,20.7453464 13.8152909,20.152151 C13.4552908,19.3854274 13.2397978,19.0260641 12.8912062,18.6888535 C11.8112059,17.6427619 11.2243043,17.5295379 9.39007853,18.2691861 C6.90303565,19.2722033 4.66824636,18.9362233 2.98359805,17.3055512 C0.595428431,14.9943042 -1.12724806,10.3631952 0.888245407,8.41254214 C1.24317507,8.06917797 3.57303481,6.03606824 3.9748659,5.55117403 C4.34627445,5.10443139 4.51233082,4.72660773 4.51233082,4.33032363 C4.51233082,2.43997462 6.8066976,0.948371115 9.14669819,0.948371115 C9.65120536,0.948371115 10.2938816,0.842531262 11.2623325,0.6173139 C11.3954311,0.586546501 11.531065,0.554548406 11.7097974,0.511474047 C14.3172629,-0.111258111 14.815432,-0.181407781 15.4061364,0.389635147 C15.6355731,0.612391116 16.4874043,1.80493551 16.4836014,1.79878203 C17.1440241,2.65288503 17.7258553,3.07009096 18.3888132,3.07009096 C19.1138838,3.07009096 19.6361374,3.01717103 20.4043067,2.89287074 C20.7186729,2.84241221 20.8783913,2.81656759 21.036842,2.79195367 C21.4627576,2.73041887 21.8151521,2.70088217 22.1992367,2.70088217 C22.7595185,2.70088217 22.8723354,2.71934261 25.6141671,3.21777447 C25.9158573,3.27315579 26.1731813,3.31869154 26.4165617,3.36053521 C27.0998013,3.47868202 27.6664212,3.56483074 28.1696607,3.62513484 C29.2407877,3.75066583 30.1065626,4.31186319 30.4538866,5.22996238 L33.3199437,12.8258179 C33.4555775,13.1421067 33.7065635,13.3045586 34.0754369,13.3045586 L35.9160007,13.3045586 Z" id="Based-in-Cape-Town,--South-Africa"></path>
            </g>
        </g>
    </g>
</svg>