<?xml version="1.0" encoding="UTF-8"?>
<svg width="37px" height="37px" viewBox="0 0 37 37" version="1.1" xmlns="http://www.w3.org/2000/svg" xmlns:xlink="http://www.w3.org/1999/xlink">
    <!-- Generator: sketchtool 62 (101010) - https://sketch.com -->
    <title>35A24415-A97B-4ABE-8BFD-AEAFED95D19C</title>
    <desc>Created with sketchtool.</desc>
    <g id="Page-1" stroke="none" stroke-width="1" fill="none" fill-rule="evenodd">
        <g id="HOME_Go2Africa.com-2021_Present" transform="translate(-893.000000, -1391.000000)" fill="#9B8856">
            <path d="M919.141853,1391.05894 C919.457463,1391.05894 919.713825,1391.31555 919.713825,1391.63146 L919.713825,1391.63146 L919.713825,1391.72954 L920.496582,1391.72954 C920.813331,1391.72954 921.069692,1391.98728 921.069692,1392.30319 C921.069692,1392.6191 920.813331,1392.87571 920.496582,1392.87571 L920.496582,1392.87571 L919.713825,1392.87571 L919.713825,1394.68449 L920.404292,1394.68449 C921.855868,1394.68449 923.049943,1395.85689 923.182112,1397.41135 L923.182112,1397.41135 L923.602545,1401.06769 L927.176795,1401.06769 C928.088302,1401.06769 928.828902,1401.81013 928.828902,1402.7225 L928.828902,1402.7225 L928.828902,1404.57919 C928.828902,1405.49042 928.088302,1406.23286 927.176795,1406.23286 L927.176795,1406.23286 L924.195025,1406.23286 L924.29643,1407.11787 C926.255032,1407.48168 927.665591,1409.17185 927.665591,1411.17337 L927.665591,1411.17337 L927.665591,1417.58964 L928.928029,1417.58964 C929.243638,1417.58964 929.5,1417.84739 929.5,1418.1633 L929.5,1418.1633 L929.5,1421.60979 C929.5,1421.9257 929.243638,1422.18344 928.928029,1422.18344 L928.928029,1422.18344 L926.948918,1422.18344 L926.948918,1424.46096 C926.948918,1425.89338 925.784466,1427.05894 924.354539,1427.05894 C922.923471,1427.05894 921.75902,1425.89338 921.75902,1424.46096 L921.75902,1424.46096 L921.75902,1422.18344 L901.24098,1422.18344 L901.24098,1424.46096 C901.24098,1425.89338 900.076529,1427.05894 898.646601,1427.05894 C897.215534,1427.05894 896.051082,1425.89338 896.051082,1424.46096 L896.051082,1424.46096 L896.051082,1422.18344 L894.071971,1422.18344 C893.756362,1422.18344 893.5,1421.9257 893.5,1421.60979 L893.5,1421.60979 L893.5,1418.1633 C893.5,1417.84739 893.756362,1417.58964 894.071971,1417.58964 L894.071971,1417.58964 L895.138435,1417.58964 L895.138435,1411.17337 C895.138435,1409.17185 896.548994,1407.48168 898.506457,1407.11787 L898.506457,1407.11787 L898.607862,1406.23286 L895.823205,1406.23286 C894.911698,1406.23286 894.169958,1405.49042 894.169958,1404.57919 L894.169958,1404.57919 L894.169958,1402.7225 C894.169958,1401.81013 894.911698,1401.06769 895.823205,1401.06769 L895.823205,1401.06769 L899.200342,1401.06769 L899.623054,1397.39538 C899.754083,1395.85119 900.948158,1394.68449 902.398595,1394.68449 L902.398595,1394.68449 L903.078807,1394.68449 L903.078807,1392.87571 L902.502279,1392.87571 C902.187809,1392.87571 901.930308,1392.6191 901.930308,1392.30319 C901.930308,1391.98728 902.187809,1391.72954 902.502279,1391.72954 L902.502279,1391.72954 L903.078807,1391.72954 L903.078807,1391.63146 C903.078807,1391.31555 903.335169,1391.05894 903.650779,1391.05894 C903.967528,1391.05894 904.223889,1391.31555 904.223889,1391.63146 L904.223889,1391.63146 L904.223889,1391.72954 L918.569882,1391.72954 L918.569882,1391.63146 C918.569882,1391.31555 918.826244,1391.05894 919.141853,1391.05894 Z M900.097038,1422.18344 L897.195025,1422.18344 L897.195025,1424.46096 C897.195025,1425.26157 897.845613,1425.91277 898.646601,1425.91277 C899.446449,1425.91277 900.097038,1425.26157 900.097038,1424.46096 L900.097038,1424.46096 L900.097038,1422.18344 Z M925.804975,1422.18344 L922.902962,1422.18344 L922.902962,1424.46096 C922.902962,1425.26157 923.553551,1425.91277 924.354539,1425.91277 C925.154387,1425.91277 925.804975,1425.26157 925.804975,1424.46096 L925.804975,1424.46096 L925.804975,1422.18344 Z M928.356058,1418.73581 L894.643942,1418.73581 L894.643942,1421.03727 L928.356058,1421.03727 L928.356058,1418.73581 Z M923.539878,1408.18877 L899.264147,1408.18877 C897.620015,1408.18877 896.282378,1409.52767 896.282378,1411.17337 L896.282378,1411.17337 L896.282378,1417.58964 L926.521648,1417.58964 L926.521648,1411.17337 C926.521648,1409.52767 925.184011,1408.18877 923.539878,1408.18877 L923.539878,1408.18877 Z M907.838587,1409.89844 C908.154197,1409.89844 908.410558,1410.15505 908.410558,1410.47096 L908.410558,1410.47096 L908.410558,1415.46962 C908.410558,1415.78553 908.154197,1416.04328 907.838587,1416.04328 C907.522978,1416.04328 907.266616,1415.78553 907.266616,1415.46962 L907.266616,1415.46962 L907.266616,1410.47096 C907.266616,1410.15505 907.522978,1409.89844 907.838587,1409.89844 Z M910.315951,1409.89844 C910.631561,1409.89844 910.887923,1410.15505 910.887923,1410.47096 L910.887923,1410.47096 L910.887923,1415.46962 C910.887923,1415.78553 910.631561,1416.04328 910.315951,1416.04328 C910.000342,1416.04328 909.74398,1415.78553 909.74398,1415.46962 L909.74398,1415.46962 L909.74398,1410.47096 C909.74398,1410.15505 910.000342,1409.89844 910.315951,1409.89844 Z M912.793885,1409.89844 C913.109495,1409.89844 913.365856,1410.15505 913.365856,1410.47096 L913.365856,1410.47096 L913.365856,1415.46962 C913.365856,1415.78553 913.109495,1416.04328 912.793885,1416.04328 C912.478276,1416.04328 912.221914,1415.78553 912.221914,1415.46962 L912.221914,1415.46962 L912.221914,1410.47096 C912.221914,1410.15505 912.478276,1409.89844 912.793885,1409.89844 Z M915.271819,1409.89844 C915.587429,1409.89844 915.84379,1410.15505 915.84379,1410.47096 L915.84379,1410.47096 L915.84379,1415.46962 C915.84379,1415.78553 915.587429,1416.04328 915.271819,1416.04328 C914.95621,1416.04328 914.699848,1415.78553 914.699848,1415.46962 L914.699848,1415.46962 L914.699848,1410.47096 C914.699848,1410.15505 914.95621,1409.89844 915.271819,1409.89844 Z M902.04869,1410.32714 C903.504823,1410.32714 904.689784,1411.51323 904.689784,1412.97075 C904.689784,1414.42826 903.504823,1415.61549 902.04869,1415.61549 C900.592556,1415.61549 899.407596,1414.42826 899.407596,1412.97075 C899.407596,1411.51323 900.592556,1410.32714 902.04869,1410.32714 Z M920.81128,1410.32714 C922.267414,1410.32714 923.452374,1411.51323 923.452374,1412.97075 C923.452374,1414.42826 922.267414,1415.61549 920.81128,1415.61549 C919.354007,1415.61549 918.169047,1414.42826 918.169047,1412.97075 C918.169047,1411.51323 919.354007,1410.32714 920.81128,1410.32714 Z M902.04869,1411.47217 C901.222636,1411.47217 900.551538,1412.14391 900.551538,1412.97075 C900.551538,1413.79759 901.222636,1414.46932 902.04869,1414.46932 C902.874744,1414.46932 903.545841,1413.79759 903.545841,1412.97075 C903.545841,1412.14391 902.874744,1411.47217 902.04869,1411.47217 Z M920.81128,1411.47217 C919.985226,1411.47217 919.314128,1412.14391 919.314128,1412.97075 C919.314128,1413.79759 919.985226,1414.46932 920.81128,1414.46932 C921.636194,1414.46932 922.308431,1413.79759 922.308431,1412.97075 C922.308431,1412.14391 921.636194,1411.47217 920.81128,1411.47217 Z M920.404292,1395.82952 L902.398595,1395.82952 C901.547474,1395.82952 900.843335,1396.55143 900.76016,1397.50943 L900.76016,1397.50943 L900.76016,1397.51399 L899.66749,1407.04374 L904.626092,1407.04374 C904.483669,1406.76432 904.408469,1406.45754 904.408469,1406.14163 L904.408469,1406.14163 L904.408469,1404.45031 C904.408469,1403.35889 905.29605,1402.47046 906.387581,1402.47046 L906.387581,1402.47046 L916.613559,1402.47046 C917.70395,1402.47046 918.591531,1403.35889 918.591531,1404.45031 L918.591531,1404.45031 L918.591531,1406.14163 C918.591531,1406.45754 918.517471,1406.76546 918.373908,1407.04374 L918.373908,1407.04374 L923.136536,1407.04374 L922.045006,1397.52653 C921.960691,1396.55714 921.255412,1395.82952 920.404292,1395.82952 L920.404292,1395.82952 Z M916.613559,1403.61549 L906.387581,1403.61549 C905.92613,1403.61549 905.552412,1403.98956 905.552412,1404.45031 L905.552412,1404.45031 L905.552412,1406.14163 C905.552412,1406.60238 905.92613,1406.97759 906.387581,1406.97759 L906.387581,1406.97759 L916.613559,1406.97759 C917.072731,1406.97759 917.447588,1406.60238 917.447588,1406.14163 L917.447588,1406.14163 L917.447588,1404.45031 C917.447588,1403.98956 917.072731,1403.61549 916.613559,1403.61549 L916.613559,1403.61549 Z M899.069313,1402.21386 L895.823205,1402.21386 C895.542917,1402.21386 895.31504,1402.44195 895.31504,1402.7225 L895.31504,1402.7225 L895.31504,1404.57919 C895.31504,1404.85974 895.542917,1405.08783 895.823205,1405.08783 L895.823205,1405.08783 L898.74003,1405.08783 L899.069313,1402.21386 Z M927.176795,1402.21386 L923.734713,1402.21386 L924.063995,1405.08783 L927.176795,1405.08783 C927.457083,1405.08783 927.68496,1404.85974 927.68496,1404.57919 L927.68496,1404.57919 L927.68496,1402.7225 C927.68496,1402.44195 927.457083,1402.21386 927.176795,1402.21386 L927.176795,1402.21386 Z M918.569882,1392.87571 L904.223889,1392.87571 L904.223889,1394.68449 L918.569882,1394.68449 L918.569882,1392.87571 Z" id="Assistance-&amp;-local-know-how-whenever-you-need-it"></path>
        </g>
    </g>
</svg>