<?xml version="1.0" encoding="UTF-8"?>
<svg width="39px" height="39px" viewBox="0 0 39 39" version="1.1" xmlns="http://www.w3.org/2000/svg" xmlns:xlink="http://www.w3.org/1999/xlink">
    <!-- Generator: sketchtool 62 (101010) - https://sketch.com -->
    <title>C687D91A-D997-4211-83FE-6A0CCAFAAEFD</title>
    <desc>Created with sketchtool.</desc>
    <g id="Page-1" stroke="none" stroke-width="1" fill="none" fill-rule="evenodd">
        <g id="HOME_Go2Africa.com-2021_Present" transform="translate(-556.000000, -1389.000000)" fill="#9B8856">
            <g id="Group-10" transform="translate(556.500000, 1389.500000)">
                <path d="M19.0007938,-0.0004 C29.4940755,-0.0004 38.0003,8.50659101 38.0003,18.9996 C38.0003,29.4935966 29.4940755,37.9996 19.0007938,37.9996 C8.5065245,37.9996 0.000299999997,29.4935966 0.000299999997,18.9996 C0.000299999997,8.50659101 8.5065245,-0.0004 19.0007938,-0.0004 Z M19.0205459,19.6365874 C15.2251876,19.6365874 12.1369531,22.7247416 12.1369531,26.5209888 L12.1369531,26.5209888 L12.1369531,35.2936382 C14.2474606,36.1854205 16.56734,36.6801967 19.0007938,36.6801967 C21.4342476,36.6801967 23.754127,36.1854205 25.8675973,35.2926506 L25.8675973,35.2926506 L25.8675973,25.7941319 C25.5031718,22.3385989 22.5719662,19.6365874 19.0205459,19.6365874 Z M7.08832661,21.6532203 C4.98868267,21.6532203 3.28210471,23.361729 3.28210471,25.4603308 L3.28210471,25.4603308 L3.28210471,27.0592185 C4.9649802,30.3280994 7.63150825,33.0034464 10.8945485,34.6961539 L10.8945485,34.6961539 L10.8945485,25.4603308 C10.8945485,23.361729 9.18698295,21.6532203 7.08832661,21.6532203 Z M30.9112858,21.6532203 C28.8126294,21.6532203 27.1050639,23.361729 27.1050639,25.4603308 L27.1050639,25.4603308 L27.1050639,25.749691 C27.1287664,26.0044859 27.144568,26.261256 27.144568,26.5209888 L27.144568,26.5209888 L27.144568,34.6773899 C30.3898314,32.9836948 33.0415454,30.3162485 34.7184953,27.0611936 L34.7184953,27.0611936 L34.7184953,25.4603308 C34.7184953,23.361729 33.0099421,21.6532203 30.9112858,21.6532203 Z M19.0007938,1.3190033 C9.25117715,1.3190033 1.31973759,9.25023673 1.31973759,18.9996 C1.31973759,20.8789596 1.61996889,22.6872137 2.16512574,24.3878218 C2.66090244,22.1252822 4.68252575,20.4167734 7.08832661,20.4167734 C9.06649539,20.4167734 10.7720857,21.5801395 11.5967342,23.2481576 C12.8628413,20.3999846 15.7180015,18.399153 19.0205459,18.399153 C22.3092638,18.399153 25.1505976,20.3802331 26.425593,23.2066794 C27.25913,21.5613756 28.9499063,20.4167734 30.9112858,20.4167734 C33.3180743,20.4167734 35.3396976,22.1252822 35.8354743,24.3888094 L35.8353,24.3876 L35.9782849,23.9223427 C36.388181,22.5150362 36.6301519,21.0373519 36.6744471,19.5103852 L36.68185,18.9996 C36.68185,9.25023673 28.7504105,1.3190033 19.0007938,1.3190033 Z M7.39003932,11.6312856 L7.40880378,11.6317794 L7.42756824,11.6322732 C8.51096871,11.642149 9.52721218,12.0727327 10.2856913,12.8460057 C11.045158,13.6192788 11.4569884,14.6414213 11.4471124,15.7247936 C11.438224,16.8081659 11.0076291,17.8224078 10.2333483,18.5828424 C9.46993121,19.3324136 8.46060096,19.7452209 7.39102693,19.7452209 C7.37917569,19.7452209 7.36732446,19.7442333 7.35349801,19.7442333 C5.20830462,19.7212497 3.44850312,18.0100149 3.3402163,15.8883252 L3.33494147,15.6882533 L3.33494147,15.6517129 C3.35469353,13.4267012 5.16990782,11.6312856 7.39003932,11.6312856 Z M30.2611467,11.6312856 L30.2791705,11.6317794 L30.2986757,11.6322732 C31.3810885,11.642149 32.397332,12.0727327 33.1558111,12.8460057 C33.9152778,13.6192788 34.3271082,14.6414213 34.3172322,15.7247936 C34.2974801,17.9498053 32.4822658,19.7452209 30.2621343,19.7452209 C30.2492955,19.7452209 30.2374443,19.7442333 30.2246054,19.7442333 C28.0784544,19.7212497 26.3186238,18.0100149 26.2103361,15.8883252 L26.2050613,15.6882533 L26.2050613,15.6517129 C26.2248133,13.4267012 28.0400276,11.6312856 30.2611467,11.6312856 Z M7.35053521,12.9101983 C5.89736886,12.9301693 4.70429027,14.086621 4.61790744,15.5215031 L4.61289973,15.6882533 L4.61289973,15.7277563 C4.63382229,17.1894439 5.78576024,18.3754823 7.22298746,18.4613319 L7.39003932,18.4663082 L7.43151865,18.4663082 C8.96032807,18.4445815 10.1889062,17.1804826 10.1701417,15.6477626 C10.1474269,14.1160302 8.86946859,12.8855088 7.35053521,12.9101983 Z M30.2621343,12.9092107 L30.220655,12.9092107 C28.7665376,12.9301327 27.5734238,14.0875354 27.4879211,15.5216048 L27.483019,15.6882533 L27.483019,15.7267688 C27.5039421,17.1884564 28.6558801,18.3754105 30.0939892,18.461328 L30.2611467,18.4663082 L30.3016385,18.4663082 C31.0423407,18.4544573 31.735638,18.156209 32.253142,17.6239048 C32.7706459,17.0925882 33.04915,16.3904207 33.0392739,15.6477626 C33.0175467,14.1298563 31.7761297,12.9092107 30.2621343,12.9092107 Z M18.9958558,4.87299779 C22.2470448,4.87299779 24.8918456,7.51772984 24.8918456,10.7688344 C24.8918456,14.0199389 22.2470448,16.6646709 18.9958558,16.6646709 C15.7436792,16.6646709 13.0988784,14.0199389 13.0988784,10.7688344 C13.0988784,7.51772984 15.7436792,4.87299779 18.9958558,4.87299779 Z M18.9958558,6.15092283 C16.4488277,6.15092283 14.375849,8.22286004 14.375849,10.7688344 C14.375849,13.3148087 16.4488277,15.3867459 18.9958558,15.3867459 C21.5409087,15.3867459 23.6138873,13.3148087 23.6138873,10.7688344 C23.6138873,8.22286004 21.5409087,6.15092283 18.9958558,6.15092283 Z" id="3-000+-safari-partners-across-Africa"></path>
            </g>
        </g>
    </g>
</svg>